<svg width="650" height="271" viewBox="0 0 650 271" fill="none" xmlns="http://www.w3.org/2000/svg">
<path d="M116.38 265.57V203.57H1.17993V163.97L99.58 5.56995H173.98V157.97H205.18V203.57H173.98V265.57H116.38ZM116.38 157.97V100.37C116.38 84.77 117.18 68.7699 118.38 51.9699H116.78C108.38 68.7699 101.58 83.97 92.78 100.37L57.9799 157.17V157.97H116.38Z" fill="#9575FC" stroke="black" stroke-miterlimit="10"/>
<path d="M422.78 134.37C422.78 214.77 390.38 269.97 323.98 269.97C257.58 269.97 227.18 209.57 226.78 135.97C226.78 60.7699 258.78 1.16992 325.98 1.16992C393.18 1.16992 422.78 63.1699 422.78 134.37ZM287.98 135.97C287.58 195.57 301.98 223.97 325.58 223.97C349.18 223.97 361.98 194.37 361.98 135.17C361.98 75.9699 349.58 47.1699 325.18 47.1699C302.78 47.1699 287.58 75.5699 287.98 135.97Z" fill="#9575FC" stroke="black" stroke-miterlimit="10"/>
<path d="M560.38 265.57V203.57H445.18V163.97L543.58 5.56995H617.98V157.97H649.18V203.57H617.98V265.57H560.38ZM560.38 157.97V100.37C560.38 84.77 561.18 68.7699 562.38 51.9699H560.78C552.38 68.7699 545.58 83.97 536.78 100.37L501.98 157.17V157.97H560.38Z" fill="#9575FC" stroke="black" stroke-miterlimit="10"/>
</svg>
